<svg version="1.1" id="Layer_1" xmlns="http://www.w3.org/2000/svg" xmlns:xlink="http://www.w3.org/1999/xlink" x="0px" y="0px"
	 width="100%" viewBox="0 0 842 595" enable-background="new 0 0 842 595" xml:space="preserve">
<path fill="#ffffff" opacity="1.000000" stroke="none" 
	d="
M606.000000,596.000000 
	C404.000000,596.000000 202.500000,596.000000 1.000000,596.000000 
	C1.000000,397.666656 1.000000,199.333328 1.000000,1.000000 
	C281.666656,1.000000 562.333313,1.000000 843.000000,1.000000 
	C843.000000,199.333328 843.000000,397.666656 843.000000,596.000000 
	C764.166687,596.000000 685.333313,596.000000 606.000000,596.000000 
M357.132202,392.015137 
	C355.143707,395.064636 353.155243,398.114136 350.998779,401.003662 
	C350.998779,401.003662 351.169220,401.159760 350.507782,401.348755 
	C347.179291,404.116455 343.850830,406.884186 340.306915,409.754272 
	C340.306915,409.754272 340.114319,409.895020 339.345490,409.903992 
	C334.673218,412.918335 330.093536,416.090332 325.303131,418.903473 
	C320.337219,421.819702 315.167084,424.388245 309.203552,427.081757 
	C293.203186,427.425903 277.571167,434.289001 260.782043,430.116852 
	C260.782043,460.932434 260.782043,492.083313 260.782043,523.623169 
	C378.324921,523.623169 496.000366,523.623169 613.841675,523.623169 
	C613.841675,492.696838 613.841675,461.909363 613.424988,430.492798 
	C611.526611,430.045593 609.639648,429.279602 607.727783,429.211639 
	C602.240295,429.016571 596.736023,429.246490 591.253723,428.985870 
	C589.785767,428.916046 588.372803,427.688568 586.976135,426.056030 
	C586.948669,424.273987 586.763245,422.477661 586.922913,420.712524 
	C587.440308,414.991394 588.241943,409.291229 588.589050,403.562103 
	C588.702026,401.697479 587.297485,399.746979 587.386414,397.873657 
	C587.587830,393.626892 588.286072,389.403687 588.825439,384.227661 
	C588.873901,380.440674 588.922424,376.653717 588.985779,372.022217 
	C588.309326,368.945007 587.107056,365.872772 587.077759,362.789398 
	C587.032104,357.972046 583.891968,353.157135 586.934265,348.294281 
	C587.198669,347.871704 586.856750,347.027771 586.712402,346.398865 
	C586.115784,343.799286 585.319275,341.233521 584.905273,338.606628 
	C584.101807,333.508057 583.550171,328.370361 582.812622,323.260651 
	C582.078064,318.171661 581.243591,313.097107 580.452942,308.016235 
	C580.875977,307.893738 581.299011,307.771271 581.722107,307.648804 
	C580.492676,307.138550 579.263306,306.628296 579.227783,306.613556 
	C578.751526,302.758972 578.398926,299.904816 577.994263,296.142395 
	C578.256226,287.205170 575.477478,278.983002 571.909668,270.502380 
	C571.909668,270.502380 571.767578,270.090698 571.615723,269.316010 
	C571.297363,267.401367 571.191345,265.421051 570.622986,263.583740 
	C568.470276,256.624573 566.191345,249.703964 563.913269,242.784180 
	C562.193787,237.561203 561.446350,231.632004 558.421265,227.307907 
	C552.669556,219.086411 551.139709,209.068176 545.722595,200.835831 
	C543.390076,197.291092 541.200989,193.651917 538.537903,189.404358 
	C537.311523,187.321915 536.142517,185.203018 534.846924,183.164520 
	C532.003479,178.690369 529.108582,174.248657 526.207886,169.811234 
	C525.173523,168.229004 524.061523,166.697540 522.954895,164.354218 
	C522.545105,163.199219 522.381226,161.863663 521.686829,160.917542 
	C515.730652,152.802155 509.889557,144.586945 503.574951,136.755661 
	C499.841644,132.125626 495.314178,128.135956 491.004059,123.107437 
	C489.772827,122.511826 488.541626,121.916214 487.534424,121.428986 
	C487.678192,120.329247 487.798065,119.412231 487.917908,118.495224 
	C487.533081,118.788612 487.148254,119.082001 486.763428,119.375389 
	C484.623901,117.393944 481.289154,115.725822 480.665558,113.346977 
	C479.978760,110.727013 479.148468,109.228806 476.809387,109.114212 
	C473.532654,108.953667 471.977600,107.633003 471.931519,104.347527 
	C471.886871,101.162590 469.913849,100.032272 466.989410,99.969879 
	C466.131775,99.951576 465.021362,99.944359 464.466095,99.444267 
	C459.611328,95.071968 454.856293,90.588936 449.657928,85.569778 
	C445.924713,82.679970 442.262421,79.692291 438.442017,76.922729 
	C432.349976,72.506340 426.213684,68.142975 419.941528,63.990662 
	C418.862579,63.276367 416.789124,63.200069 415.569244,63.732380 
	C412.481873,65.079620 408.625702,74.345276 408.814270,78.780899 
	C408.247375,80.160576 407.680481,81.540245 406.326385,82.890144 
	C405.701477,83.058304 404.693146,83.042175 404.510193,83.422798 
	C402.381989,87.850075 400.378204,92.337173 398.062927,97.419998 
	C393.529541,95.906601 389.029907,94.351273 384.494354,92.908943 
	C381.442078,91.938301 378.295410,91.253914 375.269989,90.212059 
	C371.743988,88.997833 368.330017,87.462090 364.821686,86.192245 
	C356.916901,83.331100 349.042206,80.365089 341.036652,77.813828 
	C337.309326,76.625977 333.306061,76.304146 329.121216,75.533279 
	C329.121216,78.214905 329.121216,79.700523 329.025818,81.840866 
	C329.279694,82.619331 329.533569,83.397797 330.152832,84.913345 
	C331.429230,89.985359 332.705658,95.057381 334.000671,100.739273 
	C334.313385,101.185234 334.626099,101.631195 335.187531,102.965828 
	C335.865662,107.252411 334.086853,111.510063 336.846802,116.023048 
	C338.727112,119.097610 337.422424,123.991226 338.118988,127.970436 
	C338.491089,130.095764 340.086761,132.006912 341.098206,134.823090 
	C341.409637,136.537918 341.721100,138.252731 342.267395,140.863846 
	C342.741638,144.529404 341.329071,148.085434 343.808655,151.990433 
	C345.491547,154.640839 344.662201,159.129196 339.899414,161.114670 
	C336.048645,162.719910 332.633392,165.461365 329.187408,167.925949 
	C323.161743,172.235550 317.292694,176.763458 311.298920,181.118546 
	C304.829895,185.818954 298.293152,190.426102 291.097107,195.258789 
	C290.624420,196.127594 290.355377,197.250259 289.643677,197.821060 
	C286.641602,200.228821 283.467560,202.420990 280.436279,204.794037 
	C278.523071,206.291779 276.718475,207.934235 274.921844,209.573868 
	C269.773621,214.272156 262.673187,217.220779 260.310547,225.293320 
	C259.125854,225.784561 257.556061,225.947693 256.815277,226.817139 
	C248.191605,236.938431 238.825684,246.699677 238.078766,261.894623 
	C237.716583,264.805359 236.552185,267.903656 237.178665,270.583252 
	C238.138947,274.690613 234.659119,279.920898 240.076630,283.006012 
	C240.466537,283.228027 240.191849,284.544891 240.304657,285.341583 
	C240.506973,286.770111 240.579163,288.256409 241.047607,289.599304 
	C241.891876,292.019592 242.800644,294.454041 244.021957,296.697784 
	C246.025665,300.378845 247.867599,304.284149 250.562027,307.421326 
	C254.671921,312.206543 259.450409,316.417511 264.004913,321.638245 
	C267.937012,323.869263 271.797791,326.239258 275.816589,328.301392 
	C283.396790,332.191010 291.190460,335.451874 300.992889,334.933655 
	C304.970703,334.862457 308.948547,334.791229 313.850677,334.850983 
	C317.989288,334.858429 322.290955,335.597931 326.232452,334.720245 
	C334.333862,332.916168 342.295135,330.409943 350.207642,327.862091 
	C353.964386,326.652435 357.476807,324.683899 361.834167,322.908142 
	C364.553040,321.605652 367.271942,320.303162 370.801361,319.075928 
	C376.437164,317.006134 382.072968,314.936340 388.727020,312.492584 
	C386.890320,320.470642 385.557800,328.172272 383.295380,335.590271 
	C380.611053,344.391663 377.109863,352.943176 374.046478,361.632507 
	C373.920288,361.990479 374.647156,362.649139 374.881439,363.691193 
	C374.577118,364.112701 374.272827,364.534210 373.342590,365.312744 
	C370.620789,370.195953 367.898987,375.079132 365.068939,380.690979 
	C362.658783,384.432251 360.248596,388.173553 357.132202,392.015137 
z"/>
<path fill="#62D5F5" opacity="1.000000" stroke="none" 
	d="
M588.782410,385.170898 
	C588.286072,389.403687 587.587830,393.626892 587.386414,397.873657 
	C587.297485,399.746979 588.702026,401.697479 588.589050,403.562103 
	C588.241943,409.291229 587.440308,414.991394 586.922913,420.712524 
	C586.763245,422.477661 586.948669,424.273987 586.687317,426.669189 
	C585.649231,428.200867 584.899963,429.119354 584.150696,430.037842 
	C585.191833,430.673401 586.240601,431.870422 587.272888,431.856384 
	C596.130859,431.735779 604.985840,431.396118 613.841675,431.121887 
	C613.841675,461.909363 613.841675,492.696838 613.841675,523.623169 
	C496.000366,523.623169 378.324921,523.623169 260.782043,523.623169 
	C260.782043,492.083313 260.782043,460.932434 260.782043,430.116852 
	C277.571167,434.289001 293.203186,427.425903 309.786499,427.289551 
	C312.026367,427.127106 313.732208,426.900696 315.330505,426.357788 
	C319.043121,425.096558 322.839020,423.960236 326.347473,422.252289 
	C329.835571,420.554230 332.783905,417.466156 336.389465,416.366547 
	C340.327606,415.165405 340.641266,413.065369 340.114319,409.895020 
	C340.114319,409.895020 340.306915,409.754272 340.834656,409.860046 
	C347.536438,410.134521 350.835114,407.172455 351.169220,401.159760 
	C351.169220,401.159760 350.998779,401.003662 351.441833,401.109863 
	C354.436707,398.245026 356.988495,395.273987 359.779755,392.076752 
	C362.389801,388.286987 364.760376,384.723450 367.416412,380.970337 
	C372.614380,376.623871 373.880554,371.023071 373.968506,364.955719 
	C374.272827,364.534210 374.577118,364.112701 375.248352,363.251801 
	C376.380585,361.794189 377.395477,360.879089 377.866669,359.739288 
	C379.606384,355.531311 381.379089,351.316040 382.744904,346.979279 
	C384.901031,340.132965 387.022736,333.251495 388.624420,326.262390 
	C389.993713,320.287384 390.611755,314.140228 391.634613,307.606018 
	C389.157990,308.462463 387.213623,308.832458 385.581543,309.754944 
	C380.322662,312.727234 375.178925,315.903198 369.990814,319.000671 
	C367.271942,320.303162 364.553040,321.605652 361.093475,322.878113 
	C355.094299,324.024628 349.813080,325.109192 344.583466,326.402374 
	C338.871277,327.814850 333.249939,329.616455 327.507660,330.878235 
	C323.116974,331.843048 318.590851,332.180450 314.151062,332.947815 
	C313.655518,333.033447 313.330475,334.105438 312.926392,334.720001 
	C308.948547,334.791229 304.970703,334.862457 300.360657,334.565369 
	C297.505676,333.103363 295.351807,331.262115 293.047821,331.049744 
	C284.633972,330.274231 277.568726,326.436920 270.456421,322.400787 
	C268.595947,321.345001 266.131897,321.352936 263.945038,320.872314 
	C259.450409,316.417511 254.671921,312.206543 250.562027,307.421326 
	C247.867599,304.284149 246.025665,300.378845 244.021957,296.697784 
	C242.800644,294.454041 241.891876,292.019592 241.047607,289.599304 
	C240.579163,288.256409 240.506973,286.770111 240.304657,285.341583 
	C240.191849,284.544891 240.466537,283.228027 240.076630,283.006012 
	C234.659119,279.920898 238.138947,274.690613 237.178665,270.583252 
	C236.552185,267.903656 237.716583,264.805359 238.582306,261.566650 
	C239.791138,260.066223 240.743637,258.973328 241.152115,257.705231 
	C242.109161,254.734161 242.090012,251.198029 243.738556,248.746262 
	C249.187943,240.641708 255.201324,232.916397 260.998230,225.045517 
	C262.673187,217.220779 269.773621,214.272156 274.921844,209.573868 
	C276.718475,207.934235 278.523071,206.291779 280.436279,204.794037 
	C283.467560,202.420990 286.641602,200.228821 289.643677,197.821060 
	C290.355377,197.250259 290.624420,196.127594 291.879028,195.161499 
	C301.770325,193.764038 307.301270,186.535919 314.332062,181.834656 
	C319.568542,178.333206 324.183044,173.900925 329.422516,170.404724 
	C335.346741,166.451614 341.659912,163.081406 347.756348,159.485809 
	C347.054657,157.546021 346.269928,156.093445 346.021667,154.554352 
	C345.308441,150.133026 344.878998,145.665588 344.143036,141.248764 
	C344.054810,140.719177 342.765259,140.389755 342.032532,139.967560 
	C341.721100,138.252731 341.409637,136.537918 341.398285,134.230377 
	C341.864136,131.957260 342.408447,130.209824 342.124878,128.609039 
	C341.266327,123.762558 340.025421,118.985321 339.052063,114.157188 
	C338.294861,110.401222 337.770691,106.597633 336.972839,102.851440 
	C336.890808,102.466408 335.644714,102.329300 334.938782,102.077148 
	C334.626099,101.631195 334.313385,101.185234 334.321198,100.203339 
	C334.241852,94.371513 333.841980,89.075623 333.429047,83.606407 
	C331.986420,83.832169 330.886932,84.004219 329.787476,84.176270 
	C329.533569,83.397797 329.279694,82.619331 329.430115,81.450684 
	C331.364197,80.067139 333.236298,77.927521 334.368530,78.265617 
	C341.971283,80.535912 349.420227,83.322884 356.912201,85.961792 
	C364.579224,88.662346 372.230499,91.407730 379.903503,94.091072 
	C386.156769,96.277908 392.431946,98.402161 398.756165,100.574348 
	C400.958923,96.782135 403.362854,93.076286 405.290405,89.137329 
	C406.213501,87.250916 409.613251,85.861366 407.113586,82.919922 
	C407.680481,81.540245 408.247375,80.160576 409.367676,78.475876 
	C411.751343,75.262093 413.296356,72.102745 415.535828,69.553513 
	C416.605896,68.335426 419.705963,67.213814 420.670380,67.860947 
	C427.409058,72.382774 433.565826,77.813065 440.479889,82.012344 
	C443.295563,83.722458 445.701202,87.639954 450.071655,86.138756 
	C454.856293,90.588936 459.611328,95.071968 464.466095,99.444267 
	C465.021362,99.944359 466.131775,99.951576 466.989410,99.969879 
	C469.913849,100.032272 471.886871,101.162590 471.931519,104.347527 
	C471.977600,107.633003 473.532654,108.953667 476.809387,109.114212 
	C479.148468,109.228806 479.978760,110.727013 480.665558,113.346977 
	C481.289154,115.725822 484.623901,117.393944 486.763428,119.375389 
	C487.148254,119.082001 487.533081,118.788612 487.917908,118.495224 
	C487.798065,119.412231 487.678192,120.329247 487.534424,121.428986 
	C488.541626,121.916214 489.772827,122.511826 491.021942,123.879105 
	C491.209442,125.735390 491.017273,127.103981 491.608734,127.857491 
	C494.884888,132.031296 498.331879,136.072205 501.757690,140.127090 
	C507.287445,146.672226 512.846680,153.192429 518.392517,159.723999 
	C519.924988,161.528870 521.454224,163.336548 522.984924,165.142914 
	C524.061523,166.697540 525.173523,168.229004 526.207886,169.811234 
	C529.108582,174.248657 532.003479,178.690369 534.846924,183.164520 
	C536.142517,185.203018 537.311523,187.321915 538.741577,190.092651 
	C539.376831,192.977280 539.408325,195.358444 540.320557,197.332703 
	C542.439514,201.918747 545.256775,206.187378 547.300476,210.801956 
	C552.159790,221.774124 556.976685,232.778061 561.327820,243.957123 
	C563.707703,250.071579 564.540894,256.823059 567.223389,262.767517 
	C568.300354,265.154053 566.715454,269.998779 571.767578,270.090698 
	C571.767578,270.090698 571.909668,270.502380 571.833862,271.030640 
	C571.384766,273.124939 570.400024,274.841980 570.743164,276.231018 
	C572.284607,282.470184 574.152100,288.631897 576.043701,294.777924 
	C576.314392,295.657623 577.359497,296.298981 578.046265,297.050629 
	C578.398926,299.904816 578.751526,302.758972 579.227783,306.613556 
	C579.263306,306.628296 580.492676,307.138550 581.722107,307.648804 
	C581.299011,307.771271 580.875977,307.893738 580.452942,308.016235 
	C581.243591,313.097107 582.078064,318.171661 582.812622,323.260651 
	C583.550171,328.370361 584.101807,333.508057 584.905273,338.606628 
	C585.319275,341.233521 586.115784,343.799286 586.712402,346.398865 
	C586.856750,347.027771 587.198669,347.871704 586.934265,348.294281 
	C583.891968,353.157135 587.032104,357.972046 587.077759,362.789398 
	C587.107056,365.872772 588.309326,368.945007 588.668457,372.708069 
	C587.173584,374.024200 584.908508,375.004272 584.981812,375.232147 
	C586.066284,378.603729 587.461121,381.875488 588.782410,385.170898 
M436.014526,108.975586 
	C436.014526,108.975586 436.033264,108.987152 435.765442,108.378723 
	C433.942444,106.500473 432.340302,104.294159 430.215790,102.863708 
	C428.884399,101.967270 425.450562,101.599014 425.214050,102.086746 
	C423.525482,105.569023 420.047150,108.704948 421.970581,113.561409 
	C421.970581,113.561409 421.848694,113.858543 421.143768,113.948746 
	C415.563202,116.531822 415.736847,122.636513 413.004211,127.783737 
	C412.664581,128.670288 412.402283,129.596298 411.973145,130.437180 
	C408.428772,137.382233 403.598724,143.981308 401.660980,151.343887 
	C399.926117,157.935577 395.389282,160.173645 390.766510,162.845505 
	C384.688873,166.358215 378.142822,169.056763 372.034241,172.521530 
	C369.698547,173.846329 368.014587,176.320114 365.650909,178.647064 
	C359.363098,178.433273 355.103516,182.919876 351.040405,187.361191 
	C349.112122,187.958984 347.070679,188.172241 345.512360,189.153061 
	C340.708496,192.176727 336.092499,195.498459 331.396851,198.694595 
	C328.734222,200.506897 325.924591,202.133179 323.421875,204.142990 
	C320.100128,206.810516 317.061584,209.829315 313.768311,212.535278 
	C313.326965,212.897888 312.109009,212.315338 310.865723,212.412521 
	C308.095764,214.735748 305.145325,216.878311 302.597321,219.423706 
	C298.574554,223.442322 294.821869,227.731293 290.285461,232.243362 
	C287.533844,235.138763 284.814514,238.066513 281.990173,240.889130 
	C281.631866,241.247223 280.723358,241.054810 279.470947,241.391388 
	C276.449524,245.065491 273.428101,248.739594 270.890411,253.172424 
	C269.792847,255.615234 268.705841,258.062866 267.595490,260.499847 
	C265.297729,265.542999 262.430267,270.468597 265.101776,276.326019 
	C265.910553,278.099335 266.426636,280.006134 266.731476,282.472168 
	C266.559448,286.650940 267.821960,290.051239 272.151642,292.647675 
	C273.868927,294.165527 275.669220,295.600159 277.289032,297.215729 
	C283.929474,303.838776 292.424683,306.788239 301.243225,310.151917 
	C306.417480,310.392548 311.590942,310.661102 316.767883,310.804230 
	C317.077515,310.812775 317.414917,309.817719 318.511902,309.041931 
	C322.311584,308.101898 326.141602,307.268097 329.903290,306.194885 
	C334.600433,304.854797 339.280304,303.429565 343.891968,301.823761 
	C346.682861,300.851929 349.330383,299.468262 352.042297,298.269623 
	C355.044983,297.147034 357.923126,295.460236 360.938171,294.070282 
	C363.986176,292.665070 367.214020,291.653381 370.282379,290.287872 
	C373.905121,288.675659 377.441284,286.868835 381.467529,285.640991 
	C386.081482,284.149139 391.339844,283.628723 393.600372,277.341980 
	C396.766541,275.940948 399.932739,274.539948 403.690094,273.416290 
	C404.728027,273.218842 405.927979,273.289825 406.776154,272.777985 
	C410.631256,270.451569 414.387329,267.960999 418.571442,265.277863 
	C419.101044,271.955322 419.587006,278.082489 420.015594,285.027191 
	C419.890137,289.078003 419.764679,293.128845 418.906128,297.071228 
	C415.364899,300.877075 417.541260,305.060242 417.993500,309.977722 
	C417.663666,313.211456 417.507996,316.475098 416.958801,319.671143 
	C416.309814,323.447906 415.446320,327.200134 414.447571,330.901398 
	C413.191742,335.555298 411.557587,340.109253 410.367920,344.778046 
	C409.548859,347.992371 409.804596,351.581970 408.539093,354.561798 
	C404.957001,362.996368 401.148926,371.368256 396.844360,379.453094 
	C392.671631,387.290283 387.871063,394.802460 383.154938,402.337677 
	C380.244049,406.988617 376.975281,411.415527 373.160065,415.995087 
	C369.427673,419.662842 365.695282,423.330627 361.205627,426.930847 
	C359.702057,428.008759 358.198456,429.086639 356.694885,430.164551 
	C356.926697,430.685059 357.158508,431.205566 357.390320,431.726074 
	C359.286957,431.817627 361.183533,431.988831 363.080200,431.989258 
	C426.443634,432.003113 489.807037,432.000946 553.170471,431.998840 
	C554.500549,431.998779 555.977478,432.309479 557.101196,431.820709 
	C557.698425,431.560944 557.683350,429.893829 558.286560,428.171356 
	C562.716675,420.660583 558.356934,412.967163 559.054749,405.407440 
	C556.550110,405.104248 554.339844,404.836700 552.238464,403.769562 
	C549.351807,400.095398 546.033997,402.160522 542.101440,402.971161 
	C541.172852,402.340820 540.294739,401.266571 539.307190,401.154205 
	C534.027588,400.553497 528.518372,400.910797 523.494629,399.495575 
	C520.179565,398.561707 517.285461,398.682770 514.045593,398.604675 
	C509.275757,398.489685 504.544739,396.764771 499.905060,394.980316 
	C497.237244,391.088837 493.933411,393.487457 489.951080,393.897705 
	C487.492188,393.897705 485.033295,393.897705 482.065765,393.897705 
	C482.410492,390.376099 482.466309,387.313812 483.057495,384.358704 
	C483.914948,380.072693 484.862152,375.750732 486.411163,371.688171 
	C486.905701,370.391144 489.373352,369.287476 491.044281,369.113434 
	C494.604065,368.742584 498.278229,368.708191 501.816681,369.189270 
	C503.828644,369.462830 505.572876,371.550964 507.598633,371.907501 
	C513.043823,372.865906 518.572510,373.358734 524.073914,373.985504 
	C527.812988,374.411469 531.618164,374.465271 535.294678,375.189240 
	C543.045227,376.715363 550.730591,378.572327 558.437317,380.828888 
	C559.464111,379.922241 561.388062,379.003723 561.376221,378.110870 
	C561.278687,370.764374 560.821594,363.422638 559.521606,355.886383 
	C559.310120,354.305603 559.098572,352.724823 559.296814,350.432251 
	C559.272034,346.889465 561.803894,342.975891 557.176941,339.434875 
	C557.380005,336.173859 555.570923,335.110107 552.605591,334.972870 
	C550.780762,334.888397 548.976135,334.369873 546.355225,333.902252 
	C545.836609,334.047363 543.533936,335.323151 542.922180,334.760437 
	C538.951233,331.108185 534.092712,333.325897 529.768799,332.340302 
	C522.575073,330.700470 515.321350,329.265167 508.034973,328.108521 
	C501.825867,327.122864 495.527527,326.712463 489.282623,325.935547 
	C481.757355,324.999329 482.483521,324.532959 481.701111,317.096130 
	C481.207123,312.400909 486.077301,308.263794 482.351990,303.738342 
	C484.724945,303.217926 482.886414,298.270233 488.046844,299.661652 
	C496.940063,302.059570 506.327942,302.595215 515.487549,304.043518 
	C520.925476,304.903290 526.370300,305.820557 531.717224,307.106171 
	C533.877563,307.625610 535.695129,309.771606 537.995605,307.328247 
	C538.383118,306.916656 539.620239,307.126892 540.408997,307.301575 
	C544.140198,308.128113 547.852051,309.042053 552.061768,310.041382 
	C552.061768,307.330139 552.360535,305.946991 552.011719,304.753052 
	C550.175354,298.467743 546.790649,292.274231 546.590210,285.964722 
	C546.351013,278.434784 541.778259,272.304199 541.766296,264.860413 
	C541.762512,262.519867 538.930359,260.235474 537.552673,257.833618 
	C535.402283,254.084534 531.789429,255.731522 528.724609,255.202545 
	C519.530640,253.615662 510.360748,251.888016 501.186096,250.190491 
	C497.418091,249.493332 493.688232,248.515442 489.893768,248.053726 
	C484.680450,247.419342 479.442780,247.519257 474.269287,245.950943 
	C470.431641,244.787598 466.186401,244.968857 461.521942,244.489410 
	C463.057007,236.408936 464.571777,228.435211 466.193787,219.897079 
	C469.760803,220.213486 474.173828,220.334824 478.490326,221.043777 
	C487.597290,222.539505 496.657684,224.322021 505.729523,226.027588 
	C511.278442,227.070831 516.813171,228.189728 522.435303,229.980225 
	C524.653931,230.014633 526.872559,230.049042 529.091187,230.083450 
	C528.736206,228.293152 528.674805,226.376419 527.968811,224.737289 
	C526.169312,220.558929 524.247925,216.410614 522.010742,212.456589 
	C521.321655,211.238754 519.455933,210.686722 517.732971,209.181900 
	C517.193848,208.680328 516.420654,208.279495 516.154236,207.660568 
	C514.623535,204.104034 513.461182,200.367157 511.686829,196.943893 
	C510.136902,193.953552 507.932495,191.304214 506.037476,188.490601 
	C501.950989,182.423233 497.884033,176.342651 493.796234,170.276169 
	C491.242462,166.486267 488.665253,162.712173 486.468536,158.474258 
	C483.644531,154.689117 480.820526,150.903961 477.711975,146.505783 
	C468.221436,137.147858 458.730865,127.789940 449.002563,117.854294 
	C445.603363,115.061523 442.246887,112.213448 438.767334,109.524696 
	C438.105225,109.013054 436.955994,109.131775 436.014526,108.975586 
M467.500000,496.990234 
	C506.249908,496.990234 544.999817,496.990234 583.717285,496.990234 
	C583.717285,482.895874 583.717285,469.343414 583.717285,455.844666 
	C485.017609,455.844666 386.668488,455.844666 288.336304,455.844666 
	C288.336304,469.673401 288.336304,483.232666 288.336304,496.990234 
	C347.941772,496.990234 407.220886,496.990234 467.500000,496.990234 
M369.995697,142.601624 
	C370.324005,143.058701 370.701508,143.942245 370.973480,143.910873 
	C379.030029,142.981262 378.091034,133.345657 384.052734,130.339478 
	C381.282684,126.055359 387.255554,125.871567 387.504456,122.929771 
	C380.220398,120.152596 372.928619,117.372475 364.409882,114.124550 
	C366.421478,124.160179 368.195099,133.008469 369.995697,142.601624 
z"/>
<path fill="#597178" opacity="1.000000" stroke="none" 
	d="
M406.719971,82.905037 
	C409.613251,85.861366 406.213501,87.250916 405.290405,89.137329 
	C403.362854,93.076286 400.958923,96.782135 398.756165,100.574348 
	C392.431946,98.402161 386.156769,96.277908 379.903503,94.091072 
	C372.230499,91.407730 364.579224,88.662346 356.912201,85.961792 
	C349.420227,83.322884 341.971283,80.535912 334.368530,78.265617 
	C333.236298,77.927521 331.364197,80.067139 329.477783,81.123322 
	C329.121216,79.700523 329.121216,78.214905 329.121216,75.533279 
	C333.306061,76.304146 337.309326,76.625977 341.036652,77.813828 
	C349.042206,80.365089 356.916901,83.331100 364.821686,86.192245 
	C368.330017,87.462090 371.743988,88.997833 375.269989,90.212059 
	C378.295410,91.253914 381.442078,91.938301 384.494354,92.908943 
	C389.029907,94.351273 393.529541,95.906601 398.062927,97.419998 
	C400.378204,92.337173 402.381989,87.850075 404.510193,83.422798 
	C404.693146,83.042175 405.701477,83.058304 406.719971,82.905037 
z"/>
<path fill="#597178" opacity="1.000000" stroke="none" 
	d="
M571.691650,269.703369 
	C566.715454,269.998779 568.300354,265.154053 567.223389,262.767517 
	C564.540894,256.823059 563.707703,250.071579 561.327820,243.957123 
	C556.976685,232.778061 552.159790,221.774124 547.300476,210.801956 
	C545.256775,206.187378 542.439514,201.918747 540.320557,197.332703 
	C539.408325,195.358444 539.376831,192.977280 538.946045,190.418304 
	C541.200989,193.651917 543.390076,197.291092 545.722595,200.835831 
	C551.139709,209.068176 552.669556,219.086411 558.421265,227.307907 
	C561.446350,231.632004 562.193787,237.561203 563.913269,242.784180 
	C566.191345,249.703964 568.470276,256.624573 570.622986,263.583740 
	C571.191345,265.421051 571.297363,267.401367 571.691650,269.703369 
z"/>
<path fill="#596A6F" opacity="1.000000" stroke="none" 
	d="
M342.149963,140.415710 
	C342.765259,140.389755 344.054810,140.719177 344.143036,141.248764 
	C344.878998,145.665588 345.308441,150.133026 346.021667,154.554352 
	C346.269928,156.093445 347.054657,157.546021 347.756348,159.485809 
	C341.659912,163.081406 335.346741,166.451614 329.422516,170.404724 
	C324.183044,173.900925 319.568542,178.333206 314.332062,181.834656 
	C307.301270,186.535919 301.770325,193.764038 292.223450,195.069061 
	C298.293152,190.426102 304.829895,185.818954 311.298920,181.118546 
	C317.292694,176.763458 323.161743,172.235550 329.187408,167.925949 
	C332.633392,165.461365 336.048645,162.719910 339.899414,161.114670 
	C344.662201,159.129196 345.491547,154.640839 343.808655,151.990433 
	C341.329071,148.085434 342.741638,144.529404 342.149963,140.415710 
z"/>
<path fill="#596A6F" opacity="1.000000" stroke="none" 
	d="
M370.396088,319.038269 
	C375.178925,315.903198 380.322662,312.727234 385.581543,309.754944 
	C387.213623,308.832458 389.157990,308.462463 391.634613,307.606018 
	C390.611755,314.140228 389.993713,320.287384 388.624420,326.262390 
	C387.022736,333.251495 384.901031,340.132965 382.744904,346.979279 
	C381.379089,351.316040 379.606384,355.531311 377.866669,359.739288 
	C377.395477,360.879089 376.380585,361.794189 375.295898,362.990051 
	C374.647156,362.649139 373.920288,361.990479 374.046478,361.632507 
	C377.109863,352.943176 380.611053,344.391663 383.295380,335.590271 
	C385.557800,328.172272 386.890320,320.470642 388.727020,312.492584 
	C382.072968,314.936340 376.437164,317.006134 370.396088,319.038269 
z"/>
<path fill="#596A6F" opacity="1.000000" stroke="none" 
	d="
M449.864807,85.854263 
	C445.701202,87.639954 443.295563,83.722458 440.479889,82.012344 
	C433.565826,77.813065 427.409058,72.382774 420.670380,67.860947 
	C419.705963,67.213814 416.605896,68.335426 415.535828,69.553513 
	C413.296356,72.102745 411.751343,75.262093 409.551208,78.182510 
	C408.625702,74.345276 412.481873,65.079620 415.569244,63.732380 
	C416.789124,63.200069 418.862579,63.276367 419.941528,63.990662 
	C426.213684,68.142975 432.349976,72.506340 438.442017,76.922729 
	C442.262421,79.692291 445.924713,82.679970 449.864807,85.854263 
z"/>
<path fill="#516167" opacity="1.000000" stroke="none" 
	d="
M522.969910,164.748566 
	C521.454224,163.336548 519.924988,161.528870 518.392517,159.723999 
	C512.846680,153.192429 507.287445,146.672226 501.757690,140.127090 
	C498.331879,136.072205 494.884888,132.031296 491.608734,127.857491 
	C491.017273,127.103981 491.209442,125.735390 491.091827,124.254547 
	C495.314178,128.135956 499.841644,132.125626 503.574951,136.755661 
	C509.889557,144.586945 515.730652,152.802155 521.686829,160.917542 
	C522.381226,161.863663 522.545105,163.199219 522.969910,164.748566 
z"/>
<path fill="#596A6F" opacity="1.000000" stroke="none" 
	d="
M313.388550,334.785492 
	C313.330475,334.105438 313.655518,333.033447 314.151062,332.947815 
	C318.590851,332.180450 323.116974,331.843048 327.507660,330.878235 
	C333.249939,329.616455 338.871277,327.814850 344.583466,326.402374 
	C349.813080,325.109192 355.094299,324.024628 360.726349,322.953613 
	C357.476807,324.683899 353.964386,326.652435 350.207642,327.862091 
	C342.295135,330.409943 334.333862,332.916168 326.232452,334.720245 
	C322.290955,335.597931 317.989288,334.858429 313.388550,334.785492 
z"/>
<path fill="#596A6F" opacity="1.000000" stroke="none" 
	d="
M260.654388,225.169418 
	C255.201324,232.916397 249.187943,240.641708 243.738556,248.746262 
	C242.090012,251.198029 242.109161,254.734161 241.152115,257.705231 
	C240.743637,258.973328 239.791138,260.066223 238.665405,261.207703 
	C238.825684,246.699677 248.191605,236.938431 256.815277,226.817139 
	C257.556061,225.947693 259.125854,225.784561 260.654388,225.169418 
z"/>
<path fill="#596A6F" opacity="1.000000" stroke="none" 
	d="
M263.974976,321.255280 
	C266.131897,321.352936 268.595947,321.345001 270.456421,322.400787 
	C277.568726,326.436920 284.633972,330.274231 293.047821,331.049744 
	C295.351807,331.262115 297.505676,333.103363 299.865051,334.546387 
	C291.190460,335.451874 283.396790,332.191010 275.816589,328.301392 
	C271.797791,326.239258 267.937012,323.869263 263.974976,321.255280 
z"/>
<path fill="#596A6F" opacity="1.000000" stroke="none" 
	d="
M339.729919,409.899506 
	C340.641266,413.065369 340.327606,415.165405 336.389465,416.366547 
	C332.783905,417.466156 329.835571,420.554230 326.347473,422.252289 
	C322.839020,423.960236 319.043121,425.096558 315.330505,426.357788 
	C313.732208,426.900696 312.026367,427.127106 310.227844,427.303070 
	C315.167084,424.388245 320.337219,421.819702 325.303131,418.903473 
	C330.093536,416.090332 334.673218,412.918335 339.729919,409.899506 
z"/>
<path fill="#597178" opacity="1.000000" stroke="none" 
	d="
M335.063171,102.521492 
	C335.644714,102.329300 336.890808,102.466408 336.972839,102.851440 
	C337.770691,106.597633 338.294861,110.401222 339.052063,114.157188 
	C340.025421,118.985321 341.266327,123.762558 342.124878,128.609039 
	C342.408447,130.209824 341.864136,131.957260 341.414307,133.826187 
	C340.086761,132.006912 338.491089,130.095764 338.118988,127.970436 
	C337.422424,123.991226 338.727112,119.097610 336.846802,116.023048 
	C334.086853,111.510063 335.865662,107.252411 335.063171,102.521492 
z"/>
<path fill="#46555A" opacity="1.000000" stroke="none" 
	d="
M613.633301,430.807343 
	C604.985840,431.396118 596.130859,431.735779 587.272888,431.856384 
	C586.240601,431.870422 585.191833,430.673401 584.150696,430.037842 
	C584.899963,429.119354 585.649231,428.200867 586.666565,427.137451 
	C588.372803,427.688568 589.785767,428.916046 591.253723,428.985870 
	C596.736023,429.246490 602.240295,429.016571 607.727783,429.211639 
	C609.639648,429.279602 611.526611,430.045593 613.633301,430.807343 
z"/>
<path fill="#516167" opacity="1.000000" stroke="none" 
	d="
M578.020264,296.596497 
	C577.359497,296.298981 576.314392,295.657623 576.043701,294.777924 
	C574.152100,288.631897 572.284607,282.470184 570.743164,276.231018 
	C570.400024,274.841980 571.384766,273.124939 571.909424,271.234924 
	C575.477478,278.983002 578.256226,287.205170 578.020264,296.596497 
z"/>
<path fill="#597178" opacity="1.000000" stroke="none" 
	d="
M373.655548,365.134216 
	C373.880554,371.023071 372.614380,376.623871 367.229431,380.740631 
	C366.230438,380.454468 365.703827,380.208405 365.177216,379.962341 
	C367.898987,375.079132 370.620789,370.195953 373.655548,365.134216 
z"/>
<path fill="#516167" opacity="1.000000" stroke="none" 
	d="
M329.970154,84.544815 
	C330.886932,84.004219 331.986420,83.832169 333.429047,83.606407 
	C333.841980,89.075623 334.241852,94.371513 334.311890,99.898407 
	C332.705658,95.057381 331.429230,89.985359 329.970154,84.544815 
z"/>
<path fill="#597178" opacity="1.000000" stroke="none" 
	d="
M350.838501,401.254272 
	C350.835114,407.172455 347.536438,410.134521 340.942383,409.808868 
	C343.850830,406.884186 347.179291,404.116455 350.838501,401.254272 
z"/>
<path fill="#516167" opacity="1.000000" stroke="none" 
	d="
M365.123077,380.326660 
	C365.703827,380.208405 366.230438,380.454468 366.944031,380.930237 
	C364.760376,384.723450 362.389801,388.286987 359.357117,391.963867 
	C358.409485,392.023102 358.123962,391.968964 357.838440,391.914856 
	C360.248596,388.173553 362.658783,384.432251 365.123077,380.326660 
z"/>
<path fill="#46555A" opacity="1.000000" stroke="none" 
	d="
M588.803955,384.699280 
	C587.461121,381.875488 586.066284,378.603729 584.981812,375.232147 
	C584.908508,375.004272 587.173584,374.024200 588.661011,373.130341 
	C588.922424,376.653717 588.873901,380.440674 588.803955,384.699280 
z"/>
<path fill="#597178" opacity="1.000000" stroke="none" 
	d="
M357.485291,391.964966 
	C358.123962,391.968964 358.409485,392.023102 359.117676,392.190094 
	C356.988495,395.273987 354.436707,398.245026 351.525848,401.189819 
	C353.155243,398.114136 355.143707,395.064636 357.485291,391.964966 
z"/>
<path fill="#ffffff" opacity="1.000000" stroke="none" 
	d="
M419.639221,297.179657 
	C419.764679,293.128845 419.890137,289.078003 420.483612,284.541748 
	C421.322479,283.423859 422.007721,282.795227 422.015564,282.158264 
	C422.095154,275.699799 422.064148,269.239929 422.064148,261.315887 
	C419.632202,262.371674 418.107117,262.887238 416.740570,263.677094 
	C415.787659,264.227875 415.131256,265.272980 414.205536,265.892792 
	C410.532562,268.351868 406.805756,270.730469 403.098907,273.138916 
	C399.932739,274.539948 396.766541,275.940948 392.946899,277.654449 
	C388.533936,280.360077 384.774475,282.753235 381.015015,285.146393 
	C377.441284,286.868835 373.905121,288.675659 370.282379,290.287872 
	C367.214020,291.653381 363.986176,292.665070 360.938171,294.070282 
	C357.923126,295.460236 355.044983,297.147034 352.042297,298.269623 
	C349.330383,299.468262 346.682861,300.851929 343.891968,301.823761 
	C339.280304,303.429565 334.600433,304.854797 329.903290,306.194885 
	C326.141602,307.268097 322.311584,308.101898 317.689148,309.150818 
	C311.613129,309.303925 306.359863,309.348145 301.106567,309.392395 
	C292.424683,306.788239 283.929474,303.838776 277.289032,297.215729 
	C275.669220,295.600159 273.868927,294.165527 272.062012,291.901276 
	C271.200684,287.601196 270.945923,283.775482 267.076782,281.851807 
	C266.426636,280.006134 265.910553,278.099335 265.101776,276.326019 
	C262.430267,270.468597 265.297729,265.542999 267.595490,260.499847 
	C268.705841,258.062866 269.792847,255.615234 271.010284,252.702728 
	C274.265808,249.834244 277.521149,247.567215 280.433594,244.922546 
	C280.998352,244.409714 280.225555,242.423843 280.069763,241.117432 
	C280.723358,241.054810 281.631866,241.247223 281.990173,240.889130 
	C284.814514,238.066513 287.533844,235.138763 291.011902,232.155838 
	C293.003510,231.330933 294.405518,230.756012 295.509003,229.826614 
	C299.280975,226.649704 303.080872,223.484344 306.606384,220.044281 
	C308.800232,217.903595 312.457031,216.399811 311.250702,212.170456 
	C312.109009,212.315338 313.326965,212.897888 313.768311,212.535278 
	C317.061584,209.829315 320.100128,206.810516 323.421875,204.142990 
	C325.924591,202.133179 328.734222,200.506897 331.396851,198.694595 
	C336.092499,195.498459 340.708496,192.176727 345.512360,189.153061 
	C347.070679,188.172241 349.112122,187.958984 351.040405,187.361191 
	C355.103516,182.919876 359.363098,178.433273 365.650909,178.647064 
	C368.014587,176.320114 369.698547,173.846329 372.034241,172.521530 
	C378.142822,169.056763 384.688873,166.358215 390.766510,162.845505 
	C395.389282,160.173645 399.926117,157.935577 401.660980,151.343887 
	C403.598724,143.981308 408.428772,137.382233 411.973145,130.437180 
	C412.402283,129.596298 412.664581,128.670288 413.476379,127.404221 
	C414.974396,126.566422 416.565063,126.375938 416.930786,125.604645 
	C418.747375,121.773346 420.241180,117.788986 421.848694,113.858543 
	C421.848694,113.858543 421.970581,113.561409 422.389709,113.308411 
	C424.388275,109.937920 425.967712,106.820419 427.208221,104.371880 
	C430.692139,106.193886 433.362701,107.590523 436.033264,108.987152 
	C436.033264,108.987152 436.014526,108.975586 436.185242,109.267220 
	C439.738434,113.977486 443.201355,118.293167 449.138000,119.890518 
	C450.035095,121.577576 450.682861,123.082092 451.761169,124.153084 
	C458.499878,130.846054 465.296387,137.482422 472.168518,144.038239 
	C473.630615,145.433029 475.483887,146.417847 477.308533,148.000443 
	C477.836761,149.722214 477.828644,151.402145 478.663849,152.277481 
	C480.952484,154.676239 483.595734,156.736618 486.098572,158.930969 
	C488.665253,162.712173 491.242462,166.486267 493.796234,170.276169 
	C497.884033,176.342651 501.950989,182.423233 506.037476,188.490601 
	C507.932495,191.304214 510.136902,193.953552 511.686829,196.943893 
	C513.461182,200.367157 514.623535,204.104034 516.154236,207.660568 
	C516.420654,208.279495 517.193848,208.680328 517.869019,209.914978 
	C518.700500,211.415634 519.673706,212.068588 520.045349,212.969696 
	C522.206116,218.208679 524.225403,223.505981 526.402771,229.065018 
	C525.224365,229.126038 523.789368,229.200348 522.354309,229.274658 
	C516.813171,228.189728 511.278442,227.070831 505.729523,226.027588 
	C496.657684,224.322021 487.597290,222.539505 478.490326,221.043777 
	C474.173828,220.334824 469.760803,220.213486 466.193787,219.897079 
	C464.571777,228.435211 463.057007,236.408936 461.521942,244.489410 
	C466.186401,244.968857 470.431641,244.787598 474.269287,245.950943 
	C479.442780,247.519257 484.680450,247.419342 489.893768,248.053726 
	C493.688232,248.515442 497.418091,249.493332 501.186096,250.190491 
	C510.360748,251.888016 519.530640,253.615662 528.724609,255.202545 
	C531.789429,255.731522 535.402283,254.084534 537.552673,257.833618 
	C538.930359,260.235474 541.762512,262.519867 541.766296,264.860413 
	C541.778259,272.304199 546.351013,278.434784 546.590210,285.964722 
	C546.790649,292.274231 550.175354,298.467743 552.011719,304.753052 
	C552.360535,305.946991 552.061768,307.330139 552.061768,310.041382 
	C547.852051,309.042053 544.140198,308.128113 540.408997,307.301575 
	C539.620239,307.126892 538.383118,306.916656 537.995605,307.328247 
	C535.695129,309.771606 533.877563,307.625610 531.717224,307.106171 
	C526.370300,305.820557 520.925476,304.903290 515.487549,304.043518 
	C506.327942,302.595215 496.940063,302.059570 488.046844,299.661652 
	C482.886414,298.270233 484.724945,303.217926 482.351990,303.738342 
	C486.077301,308.263794 481.207123,312.400909 481.701111,317.096130 
	C482.483521,324.532959 481.757355,324.999329 489.282623,325.935547 
	C495.527527,326.712463 501.825867,327.122864 508.034973,328.108521 
	C515.321350,329.265167 522.575073,330.700470 529.768799,332.340302 
	C534.092712,333.325897 538.951233,331.108185 542.922180,334.760437 
	C543.533936,335.323151 545.836609,334.047363 546.355225,333.902252 
	C548.976135,334.369873 550.780762,334.888397 552.605591,334.972870 
	C555.570923,335.110107 557.380005,336.173859 557.340027,340.167145 
	C557.310669,343.314270 556.903320,345.740173 557.026367,348.138824 
	C557.079285,349.169708 558.233337,350.144012 558.887085,351.144043 
	C559.098572,352.724823 559.310120,354.305603 559.857666,356.430603 
	C559.609985,364.747711 559.026367,372.520630 558.442749,380.293549 
	C550.730591,378.572327 543.045227,376.715363 535.294678,375.189240 
	C531.618164,374.465271 527.812988,374.411469 524.073914,373.985504 
	C518.572510,373.358734 513.043823,372.865906 507.598633,371.907501 
	C505.572876,371.550964 503.828644,369.462830 501.816681,369.189270 
	C498.278229,368.708191 494.604065,368.742584 491.044281,369.113434 
	C489.373352,369.287476 486.905701,370.391144 486.411163,371.688171 
	C484.862152,375.750732 483.914948,380.072693 483.057495,384.358704 
	C482.466309,387.313812 482.410492,390.376099 482.065765,393.897705 
	C485.033295,393.897705 487.492188,393.897705 490.437958,394.410492 
	C493.882294,395.190735 496.839722,395.458160 499.797180,395.725586 
	C504.544739,396.764771 509.275757,398.489685 514.045593,398.604675 
	C517.285461,398.682770 520.179565,398.561707 523.494629,399.495575 
	C528.518372,400.910797 534.027588,400.553497 539.307190,401.154205 
	C540.294739,401.266571 541.172852,402.340820 542.513672,403.452972 
	C545.993774,404.146240 549.061707,404.357697 552.129578,404.569153 
	C554.339844,404.836700 556.550110,405.104248 559.054749,405.407440 
	C558.356934,412.967163 562.716675,420.660583 557.651733,428.573303 
	C492.947083,428.997833 428.877197,429.025055 364.807343,428.995636 
	C363.891968,428.995209 362.976929,428.284912 362.448578,427.949036 
	C366.566223,424.469971 370.311188,420.962372 373.992401,417.389069 
	C374.211792,417.176086 373.920685,416.437195 373.867157,415.943024 
	C376.975281,411.415527 380.244049,406.988617 383.154938,402.337677 
	C387.871063,394.802460 392.671631,387.290283 396.844360,379.453094 
	C401.148926,371.368256 404.957001,362.996368 408.539093,354.561798 
	C409.804596,351.581970 409.548859,347.992371 410.367920,344.778046 
	C411.557587,340.109253 413.191742,335.555298 414.447571,330.901398 
	C415.446320,327.200134 416.309814,323.447906 416.958801,319.671143 
	C417.507996,316.475098 417.663666,313.211456 418.483826,309.511322 
	C419.195801,305.089844 419.417480,301.134735 419.639221,297.179657 
M401.719238,235.987747 
	C406.778381,233.772415 408.320740,231.293335 407.149658,227.257324 
	C411.745300,217.564560 406.948456,207.810471 400.596466,203.463348 
	C393.761078,198.785370 386.275085,200.221329 378.117218,201.948120 
	C375.061096,204.748749 371.047119,207.040298 369.213318,210.490570 
	C367.310089,214.071457 366.477356,218.708862 367.908997,223.066162 
	C368.368134,224.463577 369.197937,225.739243 369.909637,227.590775 
	C369.875427,228.087646 369.841217,228.584503 369.973602,229.810928 
	C373.637085,234.834320 377.356720,239.765045 385.572937,238.927963 
	C390.957336,239.363266 396.052368,238.282440 401.719238,235.987747 
z"/>
<path fill="#ffffff" opacity="1.000000" stroke="none" 
	d="
M467.000000,496.990234 
	C407.220886,496.990234 347.941772,496.990234 288.336304,496.990234 
	C288.336304,483.232666 288.336304,469.673401 288.336304,455.844666 
	C386.668488,455.844666 485.017609,455.844666 583.717285,455.844666 
	C583.717285,469.343414 583.717285,482.895874 583.717285,496.990234 
	C544.999817,496.990234 506.249908,496.990234 467.000000,496.990234 
z"/>
<path fill="#5E686C" opacity="1.000000" stroke="none" 
	d="
M362.061737,427.905884 
	C362.976929,428.284912 363.891968,428.995209 364.807343,428.995636 
	C428.877197,429.025055 492.947083,428.997833 557.480835,428.918640 
	C557.683350,429.893829 557.698425,431.560944 557.101196,431.820709 
	C555.977478,432.309479 554.500549,431.998779 553.170471,431.998840 
	C489.807037,432.000946 426.443634,432.003113 363.080200,431.989258 
	C361.183533,431.988831 359.286957,431.817627 357.390320,431.726074 
	C357.158508,431.205566 356.926697,430.685059 356.694885,430.164551 
	C358.198456,429.086639 359.702057,428.008759 361.562622,427.196716 
	C361.919617,427.462555 362.061737,427.905884 362.061737,427.905884 
z"/>
<path fill="#020202" opacity="1.000000" stroke="none" 
	d="
M369.982178,142.229187 
	C368.195099,133.008469 366.421478,124.160179 364.409882,114.124550 
	C372.928619,117.372475 380.220398,120.152596 387.504456,122.929771 
	C387.255554,125.871567 381.282684,126.055359 384.052734,130.339478 
	C378.091034,133.345657 379.030029,142.981262 370.973480,143.910873 
	C370.701508,143.942245 370.324005,143.058701 369.982178,142.229187 
z"/>
<path fill="#819399" opacity="1.000000" stroke="none" 
	d="
M403.394501,273.277588 
	C406.805756,270.730469 410.532562,268.351868 414.205536,265.892792 
	C415.131256,265.272980 415.787659,264.227875 416.740570,263.677094 
	C418.107117,262.887238 419.632202,262.371674 422.064148,261.315887 
	C422.064148,269.239929 422.095154,275.699799 422.015564,282.158264 
	C422.007721,282.795227 421.322479,283.423859 420.512299,284.132996 
	C419.587006,278.082489 419.101044,271.955322 418.571442,265.277863 
	C414.387329,267.960999 410.631256,270.451569 406.776154,272.777985 
	C405.927979,273.289825 404.728027,273.218842 403.394501,273.277588 
z"/>
<path fill="#819399" opacity="1.000000" stroke="none" 
	d="
M477.156921,147.591553 
	C475.483887,146.417847 473.630615,145.433029 472.168518,144.038239 
	C465.296387,137.482422 458.499878,130.846054 451.761169,124.153084 
	C450.682861,123.082092 450.035095,121.577576 449.160248,119.619553 
	C449.168213,118.787773 449.204254,118.609901 449.240326,118.432022 
	C458.730865,127.789940 468.221436,137.147858 477.699860,146.863556 
	C477.498260,147.326767 477.321320,147.450180 477.156921,147.591553 
z"/>
<path fill="#8B9EA5" opacity="1.000000" stroke="none" 
	d="
M522.394775,229.627441 
	C523.789368,229.200348 525.224365,229.126038 526.402771,229.065018 
	C524.225403,223.505981 522.206116,218.208679 520.045349,212.969696 
	C519.673706,212.068588 518.700500,211.415634 518.067017,210.238922 
	C519.455933,210.686722 521.321655,211.238754 522.010742,212.456589 
	C524.247925,216.410614 526.169312,220.558929 527.968811,224.737289 
	C528.674805,226.376419 528.736206,228.293152 529.091187,230.083450 
	C526.872559,230.049042 524.653931,230.014633 522.394775,229.627441 
z"/>
<path fill="#9DA8AC" opacity="1.000000" stroke="none" 
	d="
M311.058228,212.291489 
	C312.457031,216.399811 308.800232,217.903595 306.606384,220.044281 
	C303.080872,223.484344 299.280975,226.649704 295.509003,229.826614 
	C294.405518,230.756012 293.003510,231.330933 291.346619,231.987061 
	C294.821869,227.731293 298.574554,223.442322 302.597321,219.423706 
	C305.145325,216.878311 308.095764,214.735748 311.058228,212.291489 
z"/>
<path fill="#9DA8AC" opacity="1.000000" stroke="none" 
	d="
M558.440063,380.561218 
	C559.026367,372.520630 559.609985,364.747711 560.333618,356.527130 
	C560.821594,363.422638 561.278687,370.764374 561.376221,378.110870 
	C561.388062,379.003723 559.464111,379.922241 558.440063,380.561218 
z"/>
<path fill="#819399" opacity="1.000000" stroke="none" 
	d="
M435.899353,108.682938 
	C433.362701,107.590523 430.692139,106.193886 427.208221,104.371880 
	C425.967712,106.820419 424.388275,109.937920 422.414856,113.149818 
	C420.047150,108.704948 423.525482,105.569023 425.214050,102.086746 
	C425.450562,101.599014 428.884399,101.967270 430.215790,102.863708 
	C432.340302,104.294159 433.942444,106.500473 435.899353,108.682938 
z"/>
<path fill="#B2C2C7" opacity="1.000000" stroke="none" 
	d="
M362.448578,427.949036 
	C362.061737,427.905884 361.919617,427.462555 361.941254,427.230469 
	C365.695282,423.330627 369.427673,419.662842 373.513611,415.969055 
	C373.920685,416.437195 374.211792,417.176086 373.992401,417.389069 
	C370.311188,420.962372 366.566223,424.469971 362.448578,427.949036 
z"/>
<path fill="#8B9EA5" opacity="1.000000" stroke="none" 
	d="
M449.121460,118.143158 
	C449.204254,118.609901 449.168213,118.787773 449.109924,119.236610 
	C443.201355,118.293167 439.738434,113.977486 436.193726,109.259262 
	C436.955994,109.131775 438.105225,109.013054 438.767334,109.524696 
	C442.246887,112.213448 445.603363,115.061523 449.121460,118.143158 
z"/>
<path fill="#9DA8AC" opacity="1.000000" stroke="none" 
	d="
M421.496216,113.903641 
	C420.241180,117.788986 418.747375,121.773346 416.930786,125.604645 
	C416.565063,126.375938 414.974396,126.566422 413.540009,127.032578 
	C415.736847,122.636513 415.563202,116.531822 421.496216,113.903641 
z"/>
<path fill="#8B9EA5" opacity="1.000000" stroke="none" 
	d="
M477.308533,148.000443 
	C477.321320,147.450180 477.498260,147.326767 477.842133,147.170059 
	C480.820526,150.903961 483.644531,154.689117 486.283569,158.702606 
	C483.595734,156.736618 480.952484,154.676239 478.663849,152.277481 
	C477.828644,151.402145 477.836761,149.722214 477.308533,148.000443 
z"/>
<path fill="#9DA8AC" opacity="1.000000" stroke="none" 
	d="
M279.770355,241.254425 
	C280.225555,242.423843 280.998352,244.409714 280.433594,244.922546 
	C277.521149,247.567215 274.265808,249.834244 270.768402,252.323380 
	C273.428101,248.739594 276.449524,245.065491 279.770355,241.254425 
z"/>
<path fill="#9DA8AC" opacity="1.000000" stroke="none" 
	d="
M381.241272,285.393677 
	C384.774475,282.753235 388.533936,280.360077 392.717377,277.932007 
	C391.339844,283.628723 386.081482,284.149139 381.241272,285.393677 
z"/>
<path fill="#8B9EA5" opacity="1.000000" stroke="none" 
	d="
M419.272644,297.125427 
	C419.417480,301.134735 419.195801,305.089844 418.541992,309.091125 
	C417.541260,305.060242 415.364899,300.877075 419.272644,297.125427 
z"/>
<path fill="#8B9EA5" opacity="1.000000" stroke="none" 
	d="
M301.174896,309.772156 
	C306.359863,309.348145 311.613129,309.303925 317.302917,309.274689 
	C317.414917,309.817719 317.077515,310.812775 316.767883,310.804230 
	C311.590942,310.661102 306.417480,310.392548 301.174896,309.772156 
z"/>
<path fill="#9DA8AC" opacity="1.000000" stroke="none" 
	d="
M559.091919,350.788147 
	C558.233337,350.144012 557.079285,349.169708 557.026367,348.138824 
	C556.903320,345.740173 557.310669,343.314270 557.644287,340.455872 
	C561.803894,342.975891 559.272034,346.889465 559.091919,350.788147 
z"/>
<path fill="#8B9EA5" opacity="1.000000" stroke="none" 
	d="
M266.904114,282.161987 
	C270.945923,283.775482 271.200684,287.601196 271.920837,291.547638 
	C267.821960,290.051239 266.559448,286.650940 266.904114,282.161987 
z"/>
<path fill="#8B9EA5" opacity="1.000000" stroke="none" 
	d="
M552.184021,404.169373 
	C549.061707,404.357697 545.993774,404.146240 542.864807,403.497803 
	C546.033997,402.160522 549.351807,400.095398 552.184021,404.169373 
z"/>
<path fill="#819399" opacity="1.000000" stroke="none" 
	d="
M499.851135,395.352966 
	C496.839722,395.458160 493.882294,395.190735 490.869446,394.492188 
	C493.933411,393.487457 497.237244,391.088837 499.851135,395.352966 
z"/>
<path fill="#62D5F5" opacity="1.000000" stroke="none" 
	d="
M369.806976,229.081375 
	C369.841217,228.584503 369.875427,228.087646 369.872131,226.865143 
	C368.919128,217.678146 369.860718,209.908020 377.573730,204.492004 
	C378.267120,204.005127 378.450867,202.792404 378.871277,201.916763 
	C386.275085,200.221329 393.761078,198.785370 400.596466,203.463348 
	C406.948456,207.810471 411.745300,217.564560 406.669189,227.791199 
	C404.431793,230.883102 402.674835,233.441147 400.917877,235.999176 
	C396.052368,238.282440 390.957336,239.363266 385.123413,238.486206 
	C381.100250,235.816544 377.538574,233.569031 373.946716,231.370850 
	C372.602997,230.548523 371.188965,229.841156 369.806976,229.081375 
z"/>
<path fill="#8B9EA5" opacity="1.000000" stroke="none" 
	d="
M378.494263,201.932434 
	C378.450867,202.792404 378.267120,204.005127 377.573730,204.492004 
	C369.860718,209.908020 368.919128,217.678146 369.846375,226.605072 
	C369.197937,225.739243 368.368134,224.463577 367.908997,223.066162 
	C366.477356,218.708862 367.310089,214.071457 369.213318,210.490570 
	C371.047119,207.040298 375.061096,204.748749 378.494263,201.932434 
z"/>
<path fill="#819399" opacity="1.000000" stroke="none" 
	d="
M369.890289,229.446152 
	C371.188965,229.841156 372.602997,230.548523 373.946716,231.370850 
	C377.538574,233.569031 381.100250,235.816544 384.682617,238.388092 
	C377.356720,239.765045 373.637085,234.834320 369.890289,229.446152 
z"/>
<path fill="#B2C2C7" opacity="1.000000" stroke="none" 
	d="
M401.318542,235.993469 
	C402.674835,233.441147 404.431793,230.883102 406.456299,228.134399 
	C408.320740,231.293335 406.778381,233.772415 401.318542,235.993469 
z"/>
</svg>